<svg xmlns="http://www.w3.org/2000/svg" xmlns:xlink="http://www.w3.org/1999/xlink" width="500" zoomAndPan="magnify" viewBox="0 0 375 374.999991" height="500" preserveAspectRatio="xMidYMid meet" version="1.0"><defs><clipPath id="9d6f7857a7"><path d="M 75.375 209 L 290.625 209 L 290.625 318.675781 L 75.375 318.675781 Z M 75.375 209 " clip-rule="nonzero"/></clipPath><clipPath id="2912fff463"><path d="M 116 55.800781 L 249 55.800781 L 249 189 L 116 189 Z M 116 55.800781 " clip-rule="nonzero"/></clipPath><clipPath id="852c78d102"><path d="M 63.75 201 L 301.5 201 L 301.5 327.300781 L 63.75 327.300781 Z M 63.75 201 " clip-rule="nonzero"/></clipPath></defs><g clip-path="url(#9d6f7857a7)"><path fill="#d71835" d="M 290.8125 318.652344 L 75.375 318.652344 C 76.3125 280.230469 91.121094 249.449219 122.757812 228.445312 C 159.824219 203.839844 199.042969 202.550781 237.476562 224.84375 C 272.574219 245.203125 289.296875 277.28125 290.816406 318.648438 Z M 290.8125 318.652344 " fill-opacity="1" fill-rule="nonzero"/></g><g clip-path="url(#2912fff463)"><path fill="#000000" d="M 182.628906 188.226562 C 146.21875 188.226562 116.589844 158.539062 116.589844 122.050781 C 116.589844 85.5625 146.21875 55.875 182.628906 55.875 C 219.042969 55.875 248.667969 85.5625 248.667969 122.050781 C 248.667969 158.539062 219.042969 188.226562 182.628906 188.226562 Z M 182.628906 69.105469 C 153.5 69.105469 129.800781 92.859375 129.800781 122.046875 C 129.800781 151.230469 153.503906 174.984375 182.628906 174.984375 C 211.757812 174.984375 235.460938 151.230469 235.460938 122.046875 C 235.460938 92.859375 211.757812 69.105469 182.628906 69.105469 Z M 182.628906 69.105469 " fill-opacity="1" fill-rule="nonzero"/></g><g clip-path="url(#852c78d102)"><path fill="#000000" d="M 301.503906 327.195312 L 63.761719 327.195312 L 63.761719 320.578125 C 63.761719 254.898438 117.089844 201.460938 182.636719 201.460938 C 248.179688 201.460938 301.511719 254.898438 301.511719 320.578125 L 301.511719 327.195312 Z M 77.171875 313.960938 L 288.085938 313.960938 C 284.671875 258.648438 238.675781 214.695312 182.628906 214.695312 C 126.585938 214.695312 80.589844 258.648438 77.171875 313.960938 Z M 77.171875 313.960938 " fill-opacity="1" fill-rule="nonzero"/></g></svg>