<svg xmlns="http://www.w3.org/2000/svg" xmlns:xlink="http://www.w3.org/1999/xlink" width="500" zoomAndPan="magnify" viewBox="0 0 375 374.999991" height="500" preserveAspectRatio="xMidYMid meet" version="1.0"><defs><clipPath id="3f37589e8f"><path d="M 80 98 L 273 98 L 273 297.136719 L 80 297.136719 Z M 80 98 " clip-rule="nonzero"/></clipPath><clipPath id="df7d032d56"><path d="M 177 79 L 286 79 L 286 213 L 177 213 Z M 177 79 " clip-rule="nonzero"/></clipPath><clipPath id="6a7397a4ed"><path d="M 210.410156 57.777344 L 312.089844 186.773438 L 258.488281 229.023438 L 156.808594 100.027344 Z M 210.410156 57.777344 " clip-rule="nonzero"/></clipPath><clipPath id="8130f8837d"><path d="M 210.410156 57.777344 L 312.089844 186.773438 L 212.542969 265.238281 L 110.867188 136.242188 Z M 210.410156 57.777344 " clip-rule="nonzero"/></clipPath><clipPath id="ac70377a31"><path d="M 210.382812 57.800781 L 311.929688 186.628906 L 275.859375 215.0625 L 174.3125 86.230469 Z M 210.382812 57.800781 " clip-rule="nonzero"/></clipPath><clipPath id="0d6ad942f1"><path d="M 173 111 L 255 111 L 255 209 L 173 209 Z M 173 111 " clip-rule="nonzero"/></clipPath><clipPath id="642681234c"><path d="M 210.410156 57.777344 L 312.089844 186.773438 L 258.488281 229.023438 L 156.808594 100.027344 Z M 210.410156 57.777344 " clip-rule="nonzero"/></clipPath><clipPath id="43c26d39b2"><path d="M 210.410156 57.777344 L 312.089844 186.773438 L 212.542969 265.238281 L 110.867188 136.242188 Z M 210.410156 57.777344 " clip-rule="nonzero"/></clipPath><clipPath id="d66a2d5c08"><path d="M 169 142 L 223 142 L 223 205 L 169 205 Z M 169 142 " clip-rule="nonzero"/></clipPath><clipPath id="5ac0fbbf88"><path d="M 210.410156 57.777344 L 312.089844 186.773438 L 258.488281 229.023438 L 156.808594 100.027344 Z M 210.410156 57.777344 " clip-rule="nonzero"/></clipPath><clipPath id="f19075f1fd"><path d="M 210.410156 57.777344 L 312.089844 186.773438 L 212.542969 265.238281 L 110.867188 136.242188 Z M 210.410156 57.777344 " clip-rule="nonzero"/></clipPath><clipPath id="8baa60382c"><path d="M 174.554688 147.9375 L 211.886719 147.9375 L 211.886719 177.945312 L 174.554688 177.945312 Z M 174.554688 147.9375 " clip-rule="nonzero"/></clipPath><clipPath id="3d2a30c41f"><path d="M 163.136719 143.316406 L 223.304688 143.316406 L 223.304688 203.480469 L 163.136719 203.480469 Z M 163.136719 143.316406 " clip-rule="nonzero"/></clipPath><clipPath id="279a887216"><path d="M 193.222656 143.316406 C 176.605469 143.316406 163.136719 156.785156 163.136719 173.398438 C 163.136719 190.011719 176.605469 203.480469 193.222656 203.480469 C 209.835938 203.480469 223.304688 190.011719 223.304688 173.398438 C 223.304688 156.785156 209.835938 143.316406 193.222656 143.316406 Z M 193.222656 143.316406 " clip-rule="nonzero"/></clipPath></defs><g clip-path="url(#3f37589e8f)"><path fill="#282828" d="M 263.671875 275.140625 L 263.71875 275.140625 Z M 112.914062 108.078125 C 111.007812 108.078125 109.207031 108.941406 107.246094 110.65625 C 107.03125 110.859375 104.230469 113.511719 102.40625 115.246094 L 100.8125 116.746094 C 91.511719 125.425781 87.296875 141.046875 90.070312 156.554688 C 90.964844 161.5625 92.40625 166.75 94.355469 171.972656 C 104.183594 198.324219 122.84375 221.234375 136.769531 235.816406 C 150.632812 250.496094 172.554688 270.324219 198.382812 281.53125 C 203.507812 283.75 208.621094 285.46875 213.582031 286.628906 C 228.941406 290.222656 244.800781 286.855469 253.972656 278.054688 L 255.5 276.601562 C 257.277344 274.929688 260.046875 272.3125 260.449219 271.925781 C 266.160156 266.058594 263.308594 261.183594 251.851562 249.550781 L 248.984375 246.613281 C 241.726562 239.097656 229.546875 226.507812 219.253906 227.734375 C 216.453125 228.066406 213.53125 230.101562 210.4375 232.257812 C 207.371094 234.394531 204.195312 236.605469 200.390625 237.808594 C 190.171875 241.042969 179.808594 238.917969 171.199219 231.835938 C 166.050781 227.601562 160.8125 222.644531 156.054688 217.519531 C 151.242188 212.566406 146.566406 207.082031 142.609375 201.730469 C 135.988281 192.773438 134.421875 182.328125 138.199219 172.316406 C 139.609375 168.582031 141.988281 165.539062 144.292969 162.59375 C 146.613281 159.625 148.808594 156.824219 149.285156 154.050781 C 151.058594 143.828125 139.121094 131.046875 131.988281 123.402344 L 129.210938 120.390625 C 121.648438 112.136719 117.050781 108.078125 112.914062 108.078125 Z M 225.976562 297.136719 C 220.839844 297.136719 215.90625 296.511719 211.503906 295.484375 C 206.011719 294.203125 200.375 292.3125 194.75 289.871094 C 167.503906 278.054688 144.585938 257.355469 130.15625 242.078125 C 115.660156 226.898438 96.183594 202.941406 85.816406 175.148438 C 83.675781 169.414062 82.089844 163.695312 81.097656 158.152344 C 78.472656 143.460938 80.632812 123.121094 94.589844 110.105469 L 96.132812 108.644531 C 98.074219 106.804688 101.09375 103.9375 101.21875 103.832031 C 115.179688 91.597656 127.671875 105.230469 135.933594 114.253906 L 138.65625 117.203125 C 146.941406 126.078125 160.808594 140.933594 158.265625 155.601562 C 157.394531 160.621094 154.25 164.644531 151.476562 168.195312 C 149.503906 170.710938 147.640625 173.089844 146.726562 175.523438 C 144.035156 182.652344 145.148438 189.847656 149.941406 196.328125 C 153.660156 201.355469 158.058594 206.519531 162.667969 211.257812 C 167.226562 216.171875 172.15625 220.832031 176.996094 224.816406 C 183.226562 229.945312 190.363281 231.433594 197.640625 229.140625 C 200.121094 228.351562 202.597656 226.625 205.21875 224.796875 C 208.921875 222.222656 213.109375 219.296875 218.183594 218.703125 C 233.035156 216.953125 247.113281 231.570312 255.542969 240.304688 L 258.351562 243.171875 C 266.933594 251.890625 279.910156 265.070312 266.933594 278.320312 C 266.730469 278.515625 263.6875 281.398438 261.761719 283.210938 L 260.28125 284.613281 C 250.683594 293.824219 237.820312 297.136719 225.976562 297.136719 " fill-opacity="1" fill-rule="nonzero"/></g><g clip-path="url(#df7d032d56)"><g clip-path="url(#6a7397a4ed)"><g clip-path="url(#8130f8837d)"><g clip-path="url(#ac70377a31)"><path fill="#d71835" d="M 271.222656 209.140625 C 270.027344 207.625 269.414062 205.660156 269.660156 203.59375 C 271.148438 191.019531 270.207031 178.453125 266.863281 166.242188 C 263.390625 153.554688 257.492188 141.875 249.339844 131.53125 C 241.1875 121.1875 231.210938 112.726562 219.683594 106.386719 C 208.597656 100.28125 196.597656 96.433594 184.015625 94.941406 C 179.886719 94.449219 176.9375 90.710938 177.425781 86.582031 C 177.917969 82.457031 181.65625 79.507812 185.785156 79.996094 C 200.300781 81.714844 214.148438 86.160156 226.941406 93.203125 C 240.238281 100.519531 251.75 110.28125 261.15625 122.214844 C 270.566406 134.152344 277.367188 147.625 281.378906 162.265625 C 285.238281 176.355469 286.324219 190.855469 284.601562 205.367188 C 284.113281 209.492188 280.371094 212.441406 276.246094 211.953125 C 274.183594 211.707031 272.414062 210.652344 271.222656 209.140625 " fill-opacity="1" fill-rule="nonzero"/></g></g></g></g><g clip-path="url(#0d6ad942f1)"><g clip-path="url(#642681234c)"><g clip-path="url(#43c26d39b2)"><path fill="#d71835" d="M 240.074219 205.449219 C 238.882812 203.9375 238.269531 201.972656 238.511719 199.90625 C 239.523438 191.363281 238.882812 182.820312 236.613281 174.523438 C 234.253906 165.910156 230.246094 157.976562 224.707031 150.945312 C 219.167969 143.917969 212.390625 138.171875 204.5625 133.863281 C 197.027344 129.714844 188.871094 127.101562 180.324219 126.089844 C 176.199219 125.597656 173.25 121.859375 173.738281 117.730469 C 174.226562 113.601562 177.96875 110.65625 182.09375 111.144531 C 192.574219 112.386719 202.574219 115.59375 211.816406 120.679688 C 221.421875 125.964844 229.730469 133.015625 236.523438 141.632812 C 243.320312 150.25 248.230469 159.980469 251.128906 170.550781 C 253.914062 180.726562 254.695312 191.199219 253.457031 201.679688 C 252.96875 205.804688 249.226562 208.753906 245.097656 208.265625 C 243.035156 208.019531 241.265625 206.960938 240.074219 205.449219 " fill-opacity="1" fill-rule="nonzero"/></g></g></g><g clip-path="url(#d66a2d5c08)"><g clip-path="url(#5ac0fbbf88)"><g clip-path="url(#f19075f1fd)"><path fill="#d71835" d="M 208.925781 201.761719 C 207.734375 200.25 207.117188 198.28125 207.363281 196.21875 C 207.898438 191.703125 207.5625 187.191406 206.363281 182.8125 C 205.117188 178.265625 203 174.078125 200.074219 170.363281 C 197.148438 166.648438 193.566406 163.613281 189.4375 161.339844 C 185.460938 159.152344 181.152344 157.769531 176.636719 157.234375 C 172.511719 156.75 169.5625 153.007812 170.046875 148.878906 C 170.539062 144.753906 174.277344 141.804688 178.40625 142.292969 C 184.855469 143.054688 191.007812 145.027344 196.695312 148.15625 C 202.601562 151.40625 207.710938 155.746094 211.890625 161.046875 C 216.074219 166.351562 219.09375 172.335938 220.875 178.835938 C 222.589844 185.09375 223.074219 191.539062 222.308594 197.988281 C 221.820312 202.117188 218.074219 205.066406 213.949219 204.574219 C 211.886719 204.332031 210.117188 203.273438 208.925781 201.761719 " fill-opacity="1" fill-rule="nonzero"/></g></g></g><g clip-path="url(#8baa60382c)"><path fill="#ffffff" d="M 174.554688 147.9375 L 211.832031 147.9375 L 211.832031 177.945312 L 174.554688 177.945312 Z M 174.554688 147.9375 " fill-opacity="1" fill-rule="nonzero"/></g><g clip-path="url(#3d2a30c41f)"><g clip-path="url(#279a887216)"><path fill="#ffffff" d="M 163.136719 143.316406 L 223.304688 143.316406 L 223.304688 203.480469 L 163.136719 203.480469 Z M 163.136719 143.316406 " fill-opacity="1" fill-rule="nonzero"/></g></g></svg>