<svg xmlns="http://www.w3.org/2000/svg" xmlns:xlink="http://www.w3.org/1999/xlink" width="500" zoomAndPan="magnify" viewBox="0 0 375 374.999991" height="500" preserveAspectRatio="xMidYMid meet" version="1.0"><defs><clipPath id="763cc7e1e3"><path d="M 92 98 L 265 98 L 265 209 L 92 209 Z M 92 98 " clip-rule="nonzero"/></clipPath><clipPath id="1aa8466a3c"><path d="M 222.367188 67.625 L 264.632812 196.71875 L 134.027344 239.476562 L 91.761719 110.382812 Z M 222.367188 67.625 " clip-rule="nonzero"/></clipPath><clipPath id="b1b977c60f"><path d="M 232.355469 98.132812 L 264.632812 196.71875 L 124.3125 208.882812 L 92.035156 110.292969 Z M 232.355469 98.132812 " clip-rule="nonzero"/></clipPath><clipPath id="212da51db0"><path d="M 171.714844 104.945312 L 297.492188 104.945312 L 297.492188 208.480469 L 171.714844 208.480469 Z M 171.714844 104.945312 " clip-rule="nonzero"/></clipPath><clipPath id="f9fa0f86e5"><path d="M 203.816406 104.945312 L 297.3125 104.945312 L 265.214844 208.480469 L 171.714844 208.480469 Z M 203.816406 104.945312 " clip-rule="nonzero"/></clipPath><clipPath id="9c79f9a28d"><path d="M 50.273438 59.433594 L 306.773438 59.433594 L 306.773438 257 L 50.273438 257 Z M 50.273438 59.433594 " clip-rule="nonzero"/></clipPath><clipPath id="dbc3cc1e24"><path d="M 110 264 L 162 264 L 162 315.933594 L 110 315.933594 Z M 110 264 " clip-rule="nonzero"/></clipPath><clipPath id="9a2de03f1b"><path d="M 212 264 L 265 264 L 265 315.933594 L 212 315.933594 Z M 212 264 " clip-rule="nonzero"/></clipPath></defs><g clip-path="url(#763cc7e1e3)"><g clip-path="url(#1aa8466a3c)"><g clip-path="url(#b1b977c60f)"><path fill="#d71835" d="M 222.367188 67.625 L 264.632812 196.71875 L 134.53125 239.3125 L 92.265625 110.21875 Z M 222.367188 67.625 " fill-opacity="1" fill-rule="nonzero"/></g></g></g><g clip-path="url(#212da51db0)"><g clip-path="url(#f9fa0f86e5)"><path fill="#d71835" d="M 171.714844 104.945312 L 297.492188 104.945312 L 297.492188 208.480469 L 171.714844 208.480469 Z M 171.714844 104.945312 " fill-opacity="1" fill-rule="nonzero"/></g></g><g clip-path="url(#9c79f9a28d)"><path fill="#000000" d="M 118.671875 221.886719 L 249.933594 221.886719 C 250.972656 221.890625 252.007812 221.847656 253.042969 221.765625 C 254.074219 221.679688 255.105469 221.554688 256.128906 221.382812 C 257.152344 221.210938 258.167969 220.996094 259.171875 220.742188 C 260.179688 220.484375 261.171875 220.1875 262.152344 219.84375 C 263.132812 219.503906 264.097656 219.125 265.042969 218.703125 C 265.992188 218.28125 266.921875 217.816406 267.832031 217.316406 C 268.738281 216.816406 269.625 216.277344 270.488281 215.703125 C 271.355469 215.128906 272.191406 214.519531 273.003906 213.871094 C 273.816406 213.226562 274.601562 212.546875 275.355469 211.832031 C 276.109375 211.121094 276.832031 210.378906 277.523438 209.605469 C 278.214844 208.832031 278.875 208.03125 279.5 207.199219 C 280.125 206.371094 280.710938 205.519531 281.261719 204.640625 C 281.816406 203.761719 282.328125 202.859375 282.804688 201.9375 C 283.28125 201.015625 283.71875 200.074219 284.113281 199.117188 C 284.511719 198.15625 284.867188 197.183594 285.179688 196.191406 C 285.496094 195.203125 285.765625 194.203125 285.996094 193.191406 L 306.558594 104.109375 C 306.632812 103.796875 306.6875 103.480469 306.722656 103.164062 C 306.757812 102.84375 306.777344 102.523438 306.777344 102.203125 C 306.78125 101.882812 306.761719 101.5625 306.726562 101.246094 C 306.691406 100.925781 306.640625 100.609375 306.566406 100.296875 C 306.496094 99.984375 306.410156 99.675781 306.304688 99.375 C 306.199219 99.070312 306.074219 98.773438 305.9375 98.484375 C 305.796875 98.195312 305.644531 97.917969 305.472656 97.644531 C 305.304688 97.371094 305.117188 97.113281 304.917969 96.859375 C 304.71875 96.609375 304.507812 96.371094 304.28125 96.144531 C 304.050781 95.917969 303.8125 95.703125 303.5625 95.503906 C 303.3125 95.304688 303.050781 95.117188 302.78125 94.949219 C 302.507812 94.777344 302.230469 94.621094 301.941406 94.484375 C 301.652344 94.34375 301.355469 94.222656 301.050781 94.113281 C 300.75 94.007812 300.441406 93.921875 300.128906 93.847656 C 299.816406 93.777344 299.5 93.722656 299.183594 93.6875 C 298.863281 93.652344 298.542969 93.636719 298.222656 93.636719 L 99.289062 93.636719 L 92.800781 66.027344 C 92.691406 65.5625 92.542969 65.109375 92.359375 64.667969 C 92.171875 64.226562 91.953125 63.804688 91.695312 63.398438 C 91.4375 62.996094 91.148438 62.617188 90.828125 62.261719 C 90.507812 61.90625 90.160156 61.578125 89.785156 61.28125 C 89.410156 60.984375 89.011719 60.71875 88.59375 60.488281 C 88.171875 60.261719 87.738281 60.066406 87.285156 59.910156 C 86.832031 59.75 86.371094 59.632812 85.898438 59.554688 C 85.425781 59.472656 84.953125 59.433594 84.472656 59.433594 L 58.824219 59.433594 C 58.261719 59.433594 57.707031 59.488281 57.15625 59.597656 C 56.605469 59.707031 56.070312 59.871094 55.550781 60.085938 C 55.03125 60.300781 54.539062 60.5625 54.074219 60.875 C 53.605469 61.1875 53.175781 61.542969 52.777344 61.9375 C 52.378906 62.335938 52.027344 62.769531 51.714844 63.234375 C 51.402344 63.703125 51.140625 64.195312 50.925781 64.714844 C 50.710938 65.230469 50.546875 65.765625 50.4375 66.316406 C 50.328125 66.867188 50.273438 67.421875 50.273438 67.984375 C 50.273438 68.546875 50.328125 69.101562 50.4375 69.652344 C 50.546875 70.203125 50.710938 70.738281 50.925781 71.257812 C 51.140625 71.777344 51.402344 72.269531 51.714844 72.734375 C 52.027344 73.203125 52.378906 73.632812 52.777344 74.03125 C 53.175781 74.429688 53.605469 74.78125 54.074219 75.09375 C 54.539062 75.40625 55.03125 75.667969 55.550781 75.882812 C 56.070312 76.097656 56.605469 76.261719 57.15625 76.371094 C 57.707031 76.480469 58.261719 76.535156 58.824219 76.535156 L 77.703125 76.535156 L 108.414062 206.972656 C 107.082031 207.5625 105.804688 208.261719 104.59375 209.066406 C 103.378906 209.875 102.238281 210.777344 101.179688 211.777344 C 100.121094 212.777344 99.152344 213.859375 98.277344 215.027344 C 97.398438 216.191406 96.628906 217.421875 95.964844 218.71875 C 95.296875 220.015625 94.746094 221.359375 94.308594 222.75 C 93.871094 224.140625 93.558594 225.558594 93.363281 227.003906 C 93.167969 228.449219 93.09375 229.898438 93.148438 231.355469 C 93.199219 232.8125 93.375 234.253906 93.671875 235.679688 C 93.972656 237.109375 94.386719 238.5 94.921875 239.855469 C 95.457031 241.210938 96.105469 242.511719 96.863281 243.757812 C 97.617188 245.003906 98.476562 246.175781 99.433594 247.273438 C 100.390625 248.375 101.433594 249.386719 102.5625 250.308594 C 103.691406 251.230469 104.890625 252.046875 106.160156 252.765625 C 107.429688 253.484375 108.75 254.085938 110.121094 254.578125 C 111.492188 255.070312 112.898438 255.445312 114.332031 255.695312 C 115.769531 255.949219 117.214844 256.078125 118.671875 256.085938 L 281.125 256.085938 C 281.683594 256.085938 282.242188 256.03125 282.792969 255.921875 C 283.34375 255.8125 283.875 255.648438 284.394531 255.433594 C 284.914062 255.21875 285.40625 254.957031 285.875 254.644531 C 286.339844 254.332031 286.773438 253.976562 287.167969 253.582031 C 287.566406 253.183594 287.921875 252.753906 288.234375 252.285156 C 288.542969 251.820312 288.808594 251.324219 289.023438 250.808594 C 289.238281 250.289062 289.398438 249.753906 289.507812 249.203125 C 289.617188 248.652344 289.671875 248.097656 289.671875 247.535156 C 289.671875 246.972656 289.617188 246.417969 289.507812 245.867188 C 289.398438 245.316406 289.238281 244.78125 289.023438 244.261719 C 288.808594 243.746094 288.542969 243.25 288.234375 242.785156 C 287.921875 242.316406 287.566406 241.886719 287.167969 241.488281 C 286.773438 241.09375 286.339844 240.738281 285.875 240.425781 C 285.40625 240.113281 284.914062 239.851562 284.394531 239.636719 C 283.875 239.421875 283.34375 239.257812 282.792969 239.148438 C 282.242188 239.039062 281.683594 238.984375 281.125 238.984375 L 118.671875 238.984375 C 118.113281 238.984375 117.554688 238.929688 117.003906 238.820312 C 116.453125 238.710938 115.921875 238.550781 115.402344 238.335938 C 114.882812 238.121094 114.390625 237.855469 113.921875 237.542969 C 113.457031 237.230469 113.023438 236.878906 112.628906 236.480469 C 112.230469 236.082031 111.875 235.652344 111.5625 235.183594 C 111.253906 234.71875 110.988281 234.226562 110.773438 233.707031 C 110.558594 233.1875 110.398438 232.652344 110.289062 232.101562 C 110.179688 231.550781 110.125 230.996094 110.125 230.433594 C 110.125 229.875 110.179688 229.316406 110.289062 228.765625 C 110.398438 228.214844 110.558594 227.683594 110.773438 227.164062 C 110.988281 226.644531 111.253906 226.152344 111.5625 225.683594 C 111.875 225.21875 112.230469 224.785156 112.628906 224.390625 C 113.023438 223.992188 113.457031 223.636719 113.921875 223.324219 C 114.390625 223.015625 114.882812 222.75 115.402344 222.535156 C 115.921875 222.320312 116.453125 222.160156 117.003906 222.050781 C 117.554688 221.941406 118.113281 221.886719 118.671875 221.886719 Z M 287.476562 110.734375 L 269.332031 189.34375 C 269.085938 190.433594 268.75 191.5 268.324219 192.53125 C 267.894531 193.566406 267.386719 194.558594 266.789062 195.503906 C 266.195312 196.453125 265.523438 197.34375 264.78125 198.179688 C 264.035156 199.011719 263.222656 199.777344 262.347656 200.476562 C 261.472656 201.171875 260.542969 201.789062 259.5625 202.328125 C 258.582031 202.867188 257.566406 203.324219 256.507812 203.6875 C 255.449219 204.054688 254.371094 204.332031 253.265625 204.515625 C 252.164062 204.699219 251.050781 204.789062 249.933594 204.785156 L 125.445312 204.785156 L 103.285156 110.734375 Z M 287.476562 110.734375 " fill-opacity="1" fill-rule="nonzero"/></g><g clip-path="url(#dbc3cc1e24)"><path fill="#000000" d="M 135.773438 264.636719 C 134.933594 264.636719 134.09375 264.675781 133.257812 264.757812 C 132.421875 264.839844 131.59375 264.964844 130.769531 265.128906 C 129.945312 265.292969 129.132812 265.496094 128.328125 265.738281 C 127.523438 265.984375 126.734375 266.265625 125.957031 266.585938 C 125.179688 266.910156 124.421875 267.269531 123.683594 267.664062 C 122.941406 268.058594 122.222656 268.492188 121.523438 268.957031 C 120.824219 269.425781 120.152344 269.925781 119.5 270.457031 C 118.851562 270.992188 118.230469 271.554688 117.636719 272.148438 C 117.042969 272.742188 116.480469 273.363281 115.945312 274.011719 C 115.414062 274.664062 114.914062 275.335938 114.445312 276.035156 C 113.980469 276.734375 113.546875 277.453125 113.152344 278.195312 C 112.757812 278.933594 112.398438 279.691406 112.074219 280.46875 C 111.753906 281.246094 111.472656 282.035156 111.226562 282.839844 C 110.984375 283.644531 110.78125 284.457031 110.617188 285.28125 C 110.453125 286.105469 110.328125 286.933594 110.246094 287.769531 C 110.164062 288.605469 110.125 289.445312 110.125 290.285156 C 110.125 291.125 110.164062 291.964844 110.246094 292.800781 C 110.328125 293.636719 110.453125 294.464844 110.617188 295.289062 C 110.78125 296.113281 110.984375 296.925781 111.226562 297.730469 C 111.472656 298.535156 111.753906 299.324219 112.074219 300.101562 C 112.398438 300.878906 112.757812 301.636719 113.152344 302.375 C 113.546875 303.117188 113.980469 303.835938 114.445312 304.535156 C 114.914062 305.234375 115.414062 305.90625 115.945312 306.558594 C 116.480469 307.207031 117.042969 307.828125 117.636719 308.421875 C 118.230469 309.015625 118.851562 309.578125 119.5 310.113281 C 120.152344 310.644531 120.824219 311.144531 121.523438 311.613281 C 122.222656 312.078125 122.941406 312.511719 123.683594 312.90625 C 124.421875 313.300781 125.179688 313.660156 125.957031 313.984375 C 126.734375 314.304688 127.523438 314.585938 128.328125 314.832031 C 129.132812 315.074219 129.945312 315.277344 130.769531 315.441406 C 131.59375 315.605469 132.421875 315.730469 133.257812 315.8125 C 134.09375 315.894531 134.933594 315.933594 135.773438 315.933594 C 136.613281 315.933594 137.453125 315.894531 138.289062 315.8125 C 139.125 315.730469 139.953125 315.605469 140.777344 315.441406 C 141.601562 315.277344 142.414062 315.074219 143.21875 314.832031 C 144.023438 314.585938 144.8125 314.304688 145.589844 313.984375 C 146.367188 313.660156 147.125 313.300781 147.863281 312.90625 C 148.605469 312.511719 149.324219 312.078125 150.023438 311.613281 C 150.722656 311.144531 151.394531 310.644531 152.046875 310.113281 C 152.695312 309.578125 153.316406 309.015625 153.910156 308.421875 C 154.503906 307.828125 155.066406 307.207031 155.601562 306.558594 C 156.132812 305.90625 156.632812 305.234375 157.101562 304.535156 C 157.566406 303.835938 158 303.117188 158.394531 302.375 C 158.789062 301.636719 159.148438 300.878906 159.472656 300.101562 C 159.792969 299.324219 160.074219 298.535156 160.320312 297.730469 C 160.5625 296.925781 160.765625 296.113281 160.929688 295.289062 C 161.09375 294.464844 161.21875 293.636719 161.300781 292.800781 C 161.382812 291.964844 161.421875 291.125 161.421875 290.285156 C 161.421875 289.445312 161.382812 288.605469 161.300781 287.769531 C 161.21875 286.933594 161.09375 286.105469 160.929688 285.28125 C 160.765625 284.457031 160.5625 283.644531 160.320312 282.839844 C 160.074219 282.035156 159.792969 281.246094 159.472656 280.46875 C 159.148438 279.691406 158.789062 278.933594 158.394531 278.195312 C 158 277.453125 157.566406 276.734375 157.101562 276.035156 C 156.632812 275.335938 156.132812 274.664062 155.601562 274.011719 C 155.066406 273.363281 154.503906 272.742188 153.910156 272.148438 C 153.316406 271.554688 152.695312 270.992188 152.046875 270.457031 C 151.394531 269.925781 150.722656 269.425781 150.023438 268.957031 C 149.324219 268.492188 148.605469 268.058594 147.863281 267.664062 C 147.125 267.269531 146.367188 266.910156 145.589844 266.585938 C 144.8125 266.265625 144.023438 265.984375 143.21875 265.738281 C 142.414062 265.496094 141.601562 265.292969 140.777344 265.128906 C 139.953125 264.964844 139.125 264.839844 138.289062 264.757812 C 137.453125 264.675781 136.613281 264.636719 135.773438 264.636719 Z M 135.773438 298.835938 C 135.210938 298.835938 134.65625 298.78125 134.105469 298.671875 C 133.554688 298.5625 133.019531 298.398438 132.5 298.183594 C 131.984375 297.96875 131.488281 297.707031 131.023438 297.394531 C 130.554688 297.082031 130.125 296.726562 129.726562 296.332031 C 129.332031 295.933594 128.976562 295.503906 128.664062 295.035156 C 128.351562 294.570312 128.089844 294.074219 127.875 293.558594 C 127.660156 293.039062 127.496094 292.503906 127.386719 291.953125 C 127.277344 291.402344 127.222656 290.847656 127.222656 290.285156 C 127.222656 289.722656 127.277344 289.167969 127.386719 288.617188 C 127.496094 288.066406 127.660156 287.53125 127.875 287.011719 C 128.089844 286.496094 128.351562 286 128.664062 285.535156 C 128.976562 285.066406 129.332031 284.636719 129.726562 284.238281 C 130.125 283.84375 130.554688 283.488281 131.023438 283.175781 C 131.488281 282.863281 131.984375 282.601562 132.5 282.386719 C 133.019531 282.171875 133.554688 282.007812 134.105469 281.898438 C 134.65625 281.789062 135.210938 281.734375 135.773438 281.734375 C 136.335938 281.734375 136.890625 281.789062 137.441406 281.898438 C 137.992188 282.007812 138.527344 282.171875 139.046875 282.386719 C 139.5625 282.601562 140.058594 282.863281 140.523438 283.175781 C 140.992188 283.488281 141.421875 283.84375 141.820312 284.238281 C 142.214844 284.636719 142.570312 285.066406 142.882812 285.535156 C 143.195312 286 143.457031 286.496094 143.671875 287.011719 C 143.886719 287.53125 144.050781 288.066406 144.160156 288.617188 C 144.269531 289.167969 144.324219 289.722656 144.324219 290.285156 C 144.324219 290.847656 144.269531 291.402344 144.160156 291.953125 C 144.050781 292.503906 143.886719 293.039062 143.671875 293.558594 C 143.457031 294.074219 143.195312 294.570312 142.882812 295.035156 C 142.570312 295.503906 142.214844 295.933594 141.820312 296.332031 C 141.421875 296.726562 140.992188 297.082031 140.523438 297.394531 C 140.058594 297.707031 139.5625 297.96875 139.046875 298.183594 C 138.527344 298.398438 137.992188 298.5625 137.441406 298.671875 C 136.890625 298.78125 136.335938 298.835938 135.773438 298.835938 Z M 135.773438 298.835938 " fill-opacity="1" fill-rule="nonzero"/></g><g clip-path="url(#9a2de03f1b)"><path fill="#000000" d="M 238.375 264.636719 C 237.535156 264.636719 236.695312 264.675781 235.859375 264.757812 C 235.023438 264.839844 234.195312 264.964844 233.371094 265.128906 C 232.546875 265.292969 231.730469 265.496094 230.925781 265.738281 C 230.125 265.984375 229.332031 266.265625 228.558594 266.585938 C 227.78125 266.910156 227.023438 267.269531 226.28125 267.664062 C 225.542969 268.058594 224.820312 268.492188 224.125 268.957031 C 223.425781 269.425781 222.75 269.925781 222.101562 270.457031 C 221.453125 270.992188 220.832031 271.554688 220.234375 272.148438 C 219.640625 272.742188 219.078125 273.363281 218.546875 274.011719 C 218.011719 274.664062 217.511719 275.335938 217.046875 276.035156 C 216.578125 276.734375 216.148438 277.453125 215.753906 278.195312 C 215.355469 278.933594 214.996094 279.691406 214.675781 280.46875 C 214.355469 281.246094 214.070312 282.035156 213.828125 282.839844 C 213.585938 283.644531 213.378906 284.457031 213.214844 285.28125 C 213.050781 286.105469 212.929688 286.933594 212.847656 287.769531 C 212.765625 288.605469 212.722656 289.445312 212.722656 290.285156 C 212.722656 291.125 212.765625 291.964844 212.847656 292.800781 C 212.929688 293.636719 213.050781 294.464844 213.214844 295.289062 C 213.378906 296.113281 213.585938 296.925781 213.828125 297.730469 C 214.070312 298.535156 214.355469 299.324219 214.675781 300.101562 C 214.996094 300.878906 215.355469 301.636719 215.753906 302.375 C 216.148438 303.117188 216.578125 303.835938 217.046875 304.535156 C 217.511719 305.234375 218.011719 305.90625 218.546875 306.558594 C 219.078125 307.207031 219.640625 307.828125 220.234375 308.421875 C 220.832031 309.015625 221.453125 309.578125 222.101562 310.113281 C 222.75 310.644531 223.425781 311.144531 224.125 311.613281 C 224.820312 312.078125 225.542969 312.511719 226.28125 312.90625 C 227.023438 313.300781 227.78125 313.660156 228.558594 313.984375 C 229.332031 314.304688 230.125 314.585938 230.925781 314.832031 C 231.730469 315.074219 232.546875 315.277344 233.371094 315.441406 C 234.195312 315.605469 235.023438 315.730469 235.859375 315.8125 C 236.695312 315.894531 237.535156 315.933594 238.375 315.933594 C 239.214844 315.933594 240.050781 315.894531 240.886719 315.8125 C 241.722656 315.730469 242.554688 315.605469 243.378906 315.441406 C 244.203125 315.277344 245.015625 315.074219 245.820312 314.832031 C 246.625 314.585938 247.414062 314.304688 248.1875 313.984375 C 248.964844 313.660156 249.722656 313.300781 250.464844 312.90625 C 251.207031 312.511719 251.925781 312.078125 252.625 311.613281 C 253.324219 311.144531 253.996094 310.644531 254.644531 310.113281 C 255.296875 309.578125 255.917969 309.015625 256.511719 308.421875 C 257.105469 307.828125 257.667969 307.207031 258.203125 306.558594 C 258.734375 305.90625 259.234375 305.234375 259.699219 304.535156 C 260.167969 303.835938 260.597656 303.117188 260.996094 302.375 C 261.390625 301.636719 261.75 300.878906 262.070312 300.101562 C 262.390625 299.324219 262.675781 298.535156 262.917969 297.730469 C 263.164062 296.925781 263.367188 296.113281 263.53125 295.289062 C 263.695312 294.464844 263.816406 293.636719 263.898438 292.800781 C 263.980469 291.964844 264.023438 291.125 264.023438 290.285156 C 264.023438 289.445312 263.980469 288.605469 263.898438 287.769531 C 263.816406 286.933594 263.695312 286.105469 263.53125 285.28125 C 263.367188 284.457031 263.164062 283.644531 262.917969 282.839844 C 262.675781 282.035156 262.390625 281.246094 262.070312 280.46875 C 261.75 279.691406 261.390625 278.933594 260.996094 278.195312 C 260.597656 277.453125 260.167969 276.734375 259.699219 276.035156 C 259.234375 275.335938 258.734375 274.664062 258.203125 274.011719 C 257.667969 273.363281 257.105469 272.742188 256.511719 272.148438 C 255.917969 271.554688 255.296875 270.992188 254.644531 270.457031 C 253.996094 269.925781 253.324219 269.425781 252.625 268.957031 C 251.925781 268.492188 251.207031 268.058594 250.464844 267.664062 C 249.722656 267.269531 248.964844 266.910156 248.1875 266.585938 C 247.414062 266.265625 246.625 265.984375 245.820312 265.738281 C 245.015625 265.496094 244.203125 265.292969 243.378906 265.128906 C 242.554688 264.964844 241.722656 264.839844 240.886719 264.757812 C 240.050781 264.675781 239.214844 264.636719 238.375 264.636719 Z M 238.375 298.835938 C 237.8125 298.835938 237.257812 298.78125 236.707031 298.671875 C 236.15625 298.5625 235.621094 298.398438 235.101562 298.183594 C 234.582031 297.96875 234.089844 297.707031 233.625 297.394531 C 233.15625 297.082031 232.726562 296.726562 232.328125 296.332031 C 231.929688 295.933594 231.578125 295.503906 231.265625 295.035156 C 230.953125 294.570312 230.6875 294.074219 230.472656 293.558594 C 230.257812 293.039062 230.097656 292.503906 229.988281 291.953125 C 229.878906 291.402344 229.824219 290.847656 229.824219 290.285156 C 229.824219 289.722656 229.878906 289.167969 229.988281 288.617188 C 230.097656 288.066406 230.257812 287.53125 230.472656 287.011719 C 230.6875 286.496094 230.953125 286 231.265625 285.535156 C 231.578125 285.066406 231.929688 284.636719 232.328125 284.238281 C 232.726562 283.84375 233.15625 283.488281 233.625 283.175781 C 234.089844 282.863281 234.582031 282.601562 235.101562 282.386719 C 235.621094 282.171875 236.15625 282.007812 236.707031 281.898438 C 237.257812 281.789062 237.8125 281.734375 238.375 281.734375 C 238.933594 281.734375 239.492188 281.789062 240.042969 281.898438 C 240.59375 282.007812 241.125 282.171875 241.644531 282.386719 C 242.164062 282.601562 242.65625 282.863281 243.125 283.175781 C 243.589844 283.488281 244.023438 283.84375 244.417969 284.238281 C 244.816406 284.636719 245.171875 285.066406 245.484375 285.535156 C 245.792969 286 246.058594 286.496094 246.273438 287.011719 C 246.488281 287.53125 246.648438 288.066406 246.757812 288.617188 C 246.867188 289.167969 246.921875 289.722656 246.921875 290.285156 C 246.921875 290.847656 246.867188 291.402344 246.757812 291.953125 C 246.648438 292.503906 246.488281 293.039062 246.273438 293.558594 C 246.058594 294.074219 245.792969 294.570312 245.484375 295.035156 C 245.171875 295.503906 244.816406 295.933594 244.417969 296.332031 C 244.023438 296.726562 243.589844 297.082031 243.125 297.394531 C 242.65625 297.707031 242.164062 297.96875 241.644531 298.183594 C 241.125 298.398438 240.59375 298.5625 240.042969 298.671875 C 239.492188 298.78125 238.933594 298.835938 238.375 298.835938 Z M 238.375 298.835938 " fill-opacity="1" fill-rule="nonzero"/></g></svg>